# xmcd
#
# Track frame offsets:
#	150
#	21307
#	40360
#	58470
#	75187
#	98165
#	115047
#	137240
#	157680
#	175375
#
# Disc length: 2645 seconds
#
# Revision: 0
# Processed by: cddbd v1.4PL0 Copyright (c) Steve Scherf et al.
# Submitted via: EasyCDDAExtractor 5.0.4.1
#
DISCID=7b0a530a
DTITLE=Petterson, Ed - Somewhere South Of Here
DYEAR=1900
DGENRE=Country
TTITLE0=What A Little Love Can Do
TTITLE1=The Man I Left Behind
TTITLE2=Listening To Elvis
TTITLE3=Dwlou
TTITLE4=Too Long Gone
TTITLE5=Somewhere South Of Here
TTITLE6=Deeper Waters
TTITLE7=How I Lost You
TTITLE8=Run Away
TTITLE9=Changing Faces
EXTD=
EXTT0=
EXTT1=
EXTT2=
EXTT3=
EXTT4=
EXTT5=
EXTT6=
EXTT7=
EXTT8=
EXTT9=
PLAYORDER=
